<svg width="101" height="68" viewBox="0 0 101 68" fill="none" xmlns="http://www.w3.org/2000/svg">
<path d="M7.62591 33.9433C7.62591 33.9433 5.46943 34.7373 4.89463 38.644C4.31983 42.5507 8.18387 43.3447 9.52314 43.3447C10.8624 43.3447 15.4928 43.8225 20.8502 42.0799C26.2076 40.3373 34.0745 43.3447 34.0745 43.3447C31.4297 48.1279 27.4547 53.1784 28.1236 60.3332C28.7372 66.8975 36.6424 68.7958 38.2234 60.3342C39.155 55.3482 42.0179 50.4559 47.2129 45.3966C52.4079 40.3373 53.6991 36.3348 55.7293 33.9433C55.7293 33.9433 64.1523 33.3802 66.0495 33.3802C67.9467 33.3802 76.5207 33.9433 76.5207 33.9433C76.5207 33.9433 84.7056 34.645 86.9191 34.645C89.1325 34.645 97.312 33.9433 97.312 33.9433C97.312 33.9433 98.8931 26.4236 98.5768 19.1509C98.2606 11.8782 96.3634 5.24424 96.3634 5.24424C96.3634 5.24424 88.9614 3.9858 84.3039 3.97941C79.6463 3.97302 72.2444 5.24423 72.2444 5.24423C72.2444 5.24423 65.3874 6.51544 60.1849 5.87664C54.9823 5.23784 48.1253 5.24423 48.1253 5.24423C44.5548 3.39694 39.254 2.60524 37.05 2.4403C37.05 2.4403 28.7885 1.80789 24.6522 1.80789C20.5159 1.80789 12.2544 2.4403 12.2544 2.4403C12.2544 2.4403 8.18388 3.0244 7.62591 6.39879C7.06795 9.77318 9.23789 10.3076 10.2708 12.8122M7.62591 33.9433C7.62591 33.9433 1.67497 32.4744 2.33618 28.5004C2.9974 24.5264 7.62591 23.0574 7.62591 23.0574M7.62591 33.9433L13.2432 33.9433M7.62591 23.0574C7.62591 23.0574 4.56646 21.7571 4.31983 17.2846C4.0732 12.8122 10.2708 12.8122 10.2708 12.8122M7.62591 23.0574L13.2432 23.0574M10.2708 12.8122L16.7214 12.8122" stroke="#D38962" stroke-width="3" stroke-linecap="round" stroke-linejoin="round"/>
</svg>
