<svg width="1090" height="156" viewBox="0 0 1090 156" fill="none" xmlns="http://www.w3.org/2000/svg">
<path d="M1026.39 15.3375C1024.94 -0.13743 1006.31 -4.61262 1002.58 15.3352C1000.38 27.0895 993.633 38.6229 981.386 50.55C969.139 62.477 966.095 71.9128 961.309 77.5506C961.309 77.5506 941.452 78.8782 936.98 78.8782C932.507 78.8782 854.881 76.7345 854.881 76.7345C854.881 76.7345 753.501 78.8782 748.283 78.8782C745.65 78.8782 735.501 76.3173 650.63 76.7345C567.254 77.1443 5.08029 77.5504 5.08029 77.5504C5.08029 77.5504 1.35296 95.2777 2.09847 112.423C2.84398 129.568 7.3166 145.207 7.3166 145.207C7.3166 145.207 552.662 147.47 634.23 148.189C721.132 148.955 738.892 146.608 744.555 146.616C755.535 146.631 868.703 149.68 875.753 148.189C882.804 146.698 938.541 142.211 950.805 143.717C963.07 145.222 979.235 145.207 979.235 145.207C987.653 149.562 1000.15 151.429 1005.35 151.818C1005.35 151.818 1024.82 153.308 1034.57 153.308C1044.32 153.308 1063.8 151.818 1063.8 151.818C1063.8 151.818 1073.4 150.441 1074.71 142.486C1076.03 134.531 1070.91 133.271 1068.48 127.366C1068.48 127.366 1083.09 127.366 1082.51 116.823C1081.92 106.279 1074.71 103.214 1074.71 103.214C1074.71 103.214 1085.62 99.7506 1087.18 90.3821C1088.74 81.0136 1074.71 77.5506 1074.71 77.5506C1074.71 77.5506 1079.8 75.6789 1081.15 66.4689C1082.51 57.259 1073.4 55.3872 1070.24 55.3872C1067.08 55.3872 1056.17 54.2609 1043.54 58.369C1030.91 62.477 1012.36 55.3872 1012.36 55.3872C1018.59 44.1111 1027.97 32.2048 1026.39 15.3375Z" fill="#64968D"/>
<path d="M1074.71 77.5506C1074.71 77.5506 1079.8 75.6789 1081.15 66.4689C1082.51 57.259 1073.4 55.3872 1070.24 55.3872C1067.08 55.3872 1056.16 54.2609 1043.54 58.369C1030.91 62.477 1012.36 55.3872 1012.36 55.3872C1018.59 44.1111 1027.97 32.2048 1026.39 15.3375C1024.94 -0.13743 1006.31 -4.61262 1002.58 15.3352C1000.38 27.0895 993.633 38.6229 981.386 50.55C969.139 62.477 966.095 71.9128 961.309 77.5506C961.309 77.5506 941.452 78.8782 936.98 78.8782C932.507 78.8782 854.881 76.7345 854.881 76.7345C854.881 76.7345 753.501 78.8782 748.283 78.8782C745.65 78.8782 735.501 76.3173 650.63 76.7345C567.254 77.1443 5.08029 77.5504 5.08029 77.5504C5.08029 77.5504 1.35296 95.2777 2.09847 112.423C2.84398 129.568 7.3166 145.207 7.3166 145.207C7.3166 145.207 552.662 147.47 634.23 148.189C721.132 148.955 738.892 146.608 744.555 146.616C755.535 146.631 868.703 149.68 875.753 148.189C882.804 146.698 938.541 142.211 950.805 143.717C963.07 145.222 979.235 145.207 979.235 145.207C987.653 149.562 1000.15 151.429 1005.35 151.818C1005.35 151.818 1024.82 153.308 1034.57 153.308C1044.32 153.308 1063.8 151.818 1063.8 151.818C1063.8 151.818 1073.4 150.441 1074.71 142.486C1076.03 134.531 1070.91 133.271 1068.48 127.366M1074.71 77.5506C1074.71 77.5506 1088.74 81.0136 1087.18 90.3821C1085.62 99.7506 1074.71 103.214 1074.71 103.214M1074.71 77.5506L1061.47 77.5506M1074.71 103.214C1074.71 103.214 1081.92 106.279 1082.51 116.823C1083.09 127.366 1068.48 127.366 1068.48 127.366M1074.71 103.214L1061.47 103.214M1068.48 127.366L1053.27 127.366" stroke="#283F3C" stroke-width="4" stroke-linecap="round" stroke-linejoin="round"/>
</svg>
