<svg width="1091" height="156" viewBox="0 0 1091 156" fill="none" xmlns="http://www.w3.org/2000/svg">
<path d="M63.9142 139.971C65.3608 155.446 83.9968 159.921 87.724 139.973C89.9202 128.219 96.6694 116.686 108.916 104.759C121.163 92.8315 124.208 83.3957 128.994 77.7579C128.994 77.7579 148.851 76.4303 153.323 76.4303C157.796 76.4303 235.422 78.5741 235.422 78.5741C235.422 78.5741 336.802 76.4303 342.02 76.4303C344.652 76.4303 354.802 78.9912 439.673 78.5741C523.049 78.1643 1085.22 77.7582 1085.22 77.7582C1085.22 77.7582 1088.95 60.0309 1088.2 42.8858C1087.46 25.7406 1082.99 10.1014 1082.99 10.1014C1082.99 10.1014 537.641 7.83862 456.072 7.11939C369.171 6.35313 351.411 8.70073 345.747 8.69297C334.767 8.6779 221.6 5.6285 214.549 7.11937C207.499 8.61024 151.762 13.0979 139.497 11.592C127.233 10.0861 111.068 10.1011 111.068 10.1011C102.65 5.74619 90.1537 3.87979 84.9577 3.49096C84.9577 3.49096 65.4817 2.00007 55.7305 2.00006C45.9793 2.00006 26.5032 3.49095 26.5032 3.49095C26.5032 3.49095 16.907 4.86794 15.5916 12.8229C14.2763 20.7779 19.3918 22.0378 21.8267 27.9423C21.8267 27.9423 7.2161 27.9423 7.79752 38.4858C8.37893 49.0294 15.5916 52.0949 15.5916 52.0949C15.5916 52.0949 4.67984 55.5579 3.12099 64.9264C1.56228 74.2949 15.5916 77.7579 15.5916 77.7579C15.5916 77.7579 10.5077 79.6296 9.1526 88.8396C7.7975 98.0495 16.907 99.9213 20.0642 99.9213C23.2216 99.9213 34.1377 101.048 46.7675 96.9395C59.3974 92.8315 77.9432 99.9213 77.9432 99.9213C71.708 111.197 62.3374 123.104 63.9142 139.971Z" fill="#D38962"/>
<path d="M15.5916 77.7579C15.5916 77.7579 10.5077 79.6296 9.15263 88.8396C7.79756 98.0495 16.907 99.9213 20.0642 99.9213C23.2215 99.9213 34.1378 101.048 46.7675 96.9395C59.3973 92.8315 77.9432 99.9213 77.9432 99.9213C71.708 111.197 62.3374 123.104 63.9142 139.971C65.3608 155.446 83.9968 159.921 87.724 139.973C89.9203 128.219 96.6694 116.686 108.916 104.759C121.163 92.8315 124.208 83.3957 128.994 77.7579C128.994 77.7579 148.851 76.4303 153.323 76.4303C157.796 76.4303 235.422 78.5741 235.422 78.5741C235.422 78.5741 336.802 76.4303 342.02 76.4303C344.652 76.4303 354.802 78.9912 439.673 78.5741C523.049 78.1643 1085.22 77.7582 1085.22 77.7582C1085.22 77.7582 1088.95 60.0309 1088.2 42.8858C1087.46 25.7406 1082.99 10.1014 1082.99 10.1014C1082.99 10.1014 537.641 7.83861 456.072 7.11939C369.171 6.35314 351.411 8.70074 345.747 8.69297C334.767 8.67791 221.6 5.6285 214.549 7.11937C207.499 8.61025 151.762 13.0979 139.497 11.592C127.233 10.0861 111.068 10.1011 111.068 10.1011C102.65 5.74619 90.1537 3.87979 84.9577 3.49096C84.9577 3.49096 65.4817 2.00007 55.7305 2.00007C45.9793 2.00006 26.5032 3.49094 26.5032 3.49094C26.5032 3.49094 16.907 4.86794 15.5916 12.8229C14.2763 20.7779 19.3917 22.0378 21.8267 27.9423M15.5916 77.7579C15.5916 77.7579 1.56226 74.2949 3.12104 64.9264C4.67983 55.5579 15.5916 52.0949 15.5916 52.0949M15.5916 77.7579L28.8341 77.7579M15.5916 52.0949C15.5916 52.0949 8.37894 49.0294 7.79753 38.4858C7.21611 27.9423 21.8267 27.9423 21.8267 27.9423M15.5916 52.0949L28.8341 52.0949M21.8267 27.9423L37.034 27.9423" stroke="#283F3C" stroke-width="4" stroke-linecap="round" stroke-linejoin="round"/>
</svg>
