<svg width="100" height="68" viewBox="0 0 100 68" fill="none" xmlns="http://www.w3.org/2000/svg">
<path d="M92.9927 34.0474C92.9927 34.0474 95.1492 33.2534 95.724 29.3467C96.2988 25.44 92.4348 24.646 91.0955 24.646C89.7562 24.646 85.1258 24.1682 79.7684 25.9108C74.4111 27.6534 66.5441 24.646 66.5441 24.646C69.189 19.8628 73.1639 14.8124 72.4951 7.65748C71.8814 1.09322 63.9763 -0.805089 62.3953 7.65649C61.4636 12.6425 58.6008 17.5348 53.4058 22.5941C48.2108 27.6534 46.9196 31.6559 44.8893 34.0474C44.8893 34.0474 36.4664 34.6106 34.5692 34.6106C32.6719 34.6106 24.098 34.0474 24.098 34.0474C24.098 34.0474 15.913 33.3457 13.6996 33.3457C11.4862 33.3457 3.30666 34.0474 3.30666 34.0474C3.30666 34.0474 1.72558 41.5671 2.04182 48.8398C2.35806 56.1126 4.25528 62.7465 4.25528 62.7465C4.25528 62.7465 11.6572 64.0049 16.3148 64.0113C20.9723 64.0177 28.3743 62.7465 28.3743 62.7465C28.3743 62.7465 35.2313 61.4753 40.4338 62.1141C45.6364 62.7529 52.4933 62.7465 52.4933 62.7465C56.0639 64.5938 61.3646 65.3855 63.5687 65.5504C63.5687 65.5504 71.8301 66.1828 75.9665 66.1828C80.1028 66.1828 88.3642 65.5504 88.3642 65.5504C88.3642 65.5504 92.4348 64.9663 92.9927 61.5919C93.5507 58.2175 91.3808 57.6831 90.3479 55.1785M92.9927 34.0474C92.9927 34.0474 98.9437 35.5163 98.2825 39.4903C97.6213 43.4643 92.9927 44.9333 92.9927 44.9333M92.9927 34.0474H87.3755M92.9927 44.9333C92.9927 44.9333 96.0522 46.2336 96.2988 50.7061C96.5455 55.1785 90.3479 55.1785 90.3479 55.1785M92.9927 44.9333H87.3755M90.3479 55.1785H83.8972" stroke="#64968D" stroke-width="3" stroke-linecap="round" stroke-linejoin="round"/>
</svg>
